<svg width="24" height="24" viewBox="0 0 24 24" fill="none" xmlns="http://www.w3.org/2000/svg">
<path d="M12 13.3468L8.633 16.7138C8.4422 16.9046 8.21773 17 7.9596 17C7.70146 17 7.47699 16.9046 7.2862 16.7138C7.0954 16.523 7 16.2985 7 16.0404C7 15.7823 7.0954 15.5578 7.2862 15.367L10.6532 12L7.2862 8.633C7.0954 8.4422 7 8.21773 7 7.9596C7 7.70146 7.0954 7.47699 7.2862 7.2862C7.47699 7.0954 7.70146 7 7.9596 7C8.21773 7 8.4422 7.0954 8.633 7.2862L12 10.6532L15.367 7.2862C15.5578 7.0954 15.7823 7 16.0404 7C16.2985 7 16.523 7.0954 16.7138 7.2862C16.9046 7.47699 17 7.70146 17 7.9596C17 8.21773 16.9046 8.4422 16.7138 8.633L13.3468 12L16.7138 15.367C16.9046 15.5578 17 15.7823 17 16.0404C17 16.2985 16.9046 16.523 16.7138 16.7138C16.523 16.9046 16.2985 17 16.0404 17C15.7823 17 15.5578 16.9046 15.367 16.7138L12 13.3468Z" fill="#1C1B1F"/>
</svg>
