<svg width="24" height="24" viewBox="0 0 24 24" fill="none" xmlns="http://www.w3.org/2000/svg">
<path fill-rule="evenodd" clip-rule="evenodd" d="M12.7528 21.98C14.2349 21.8381 15.3372 21.5247 16.5852 20.8904C18.0619 20.1399 19.3912 18.9494 20.3574 17.512C20.9942 16.5647 21.5771 15.1761 21.8008 14.0734C21.969 13.2441 22 12.9221 22 12.0024C22 10.7848 21.8691 9.94878 21.5076 8.85691C21.3021 8.23608 20.8304 7.22744 20.5117 6.72732C19.7103 5.46966 18.5447 4.30511 17.2891 3.50755C16.8981 3.25919 15.9168 2.78091 15.4315 2.60218C14.9268 2.41627 13.9894 2.18185 13.4176 2.09862C11.5222 1.82268 9.49414 2.1309 7.75557 2.95917C6.63643 3.49231 5.84168 4.0553 4.94901 4.94726C4.09768 5.79796 3.5606 6.54097 3.03787 7.59115C1.83051 10.0169 1.67061 12.7931 2.58928 15.3798C2.77394 15.8997 3.22663 16.8345 3.50827 17.2775C4.33482 18.5776 5.6067 19.8294 6.85613 20.5723C8.47073 21.5324 10.2616 22.0208 12.088 21.9993C12.3783 21.9959 12.6775 21.9872 12.7528 21.98ZM11.3254 19.9727C9.40157 19.7934 7.70602 19.0018 6.35546 17.6523C4.32836 15.6267 3.55192 12.7683 4.26783 9.96659C4.90611 7.46869 6.87752 5.32848 9.34018 4.45996C11.3812 3.74012 13.5908 3.87282 15.5506 4.83289C19.1762 6.60896 20.9052 10.8568 19.5565 14.6748C19.2929 15.4211 18.9131 16.123 18.4052 16.8028C16.7649 18.9977 14.0256 20.2243 11.3254 19.9727ZM12.3271 16.9525C13.196 16.6275 13.2418 15.4729 12.4008 15.0925C11.9144 14.8725 11.2976 15.1252 11.0799 15.6335C11.0046 15.8095 11.0046 16.1996 11.08 16.3788C11.1622 16.5739 11.3261 16.7552 11.5266 16.8727C11.7367 16.9957 12.1117 17.0331 12.3271 16.9525ZM12.4207 13.9034C12.5284 13.8533 12.6757 13.7448 12.7482 13.6624C13.0198 13.3533 13.0058 13.5109 13.0181 10.6181C13.0257 8.81345 13.0157 7.93818 12.9858 7.79411C12.9319 7.53469 12.755 7.29578 12.5003 7.13843C12.3317 7.03426 12.2744 7.02038 12.0128 7.02038C11.7605 7.02038 11.6895 7.03621 11.5348 7.12706C11.3302 7.24729 11.1675 7.42383 11.0751 7.62605C11.0197 7.74722 11.0126 8.07494 11.0126 10.498C11.0126 13.528 10.9981 13.3515 11.2714 13.6624C11.5539 13.9839 12.0321 14.0841 12.4207 13.9034Z" fill="#1C1B1F"/>
</svg>
