<svg width="24" height="24" viewBox="0 0 24 24" fill="none" xmlns="http://www.w3.org/2000/svg">
<path d="M3.26664 1.59998C2.34617 1.59998 1.59998 2.34617 1.59998 3.26664V9.09998C1.59998 9.56021 1.97307 9.93331 2.43331 9.93331C2.89355 9.93331 3.26664 9.56021 3.26664 9.09998V4.44515L9.34405 10.5226C9.66949 10.848 10.1971 10.848 10.5226 10.5226C10.848 10.1971 10.848 9.66949 10.5226 9.34405L4.44515 3.26664H9.09998C9.56021 3.26664 9.93331 2.89355 9.93331 2.43331C9.93331 1.97307 9.56021 1.59998 9.09998 1.59998H3.26664Z" fill="#1C1B1F"/>
<path d="M19.9333 21.6C20.8538 21.6 21.6 20.8538 21.6 19.9333V14.1C21.6 13.6397 21.2269 13.2666 20.7666 13.2666C20.3064 13.2666 19.9333 13.6397 19.9333 14.1V18.7548L13.8559 12.6774C13.5305 12.3519 13.0028 12.3519 12.6774 12.6774C12.3519 13.0028 12.3519 13.5305 12.6774 13.8559L18.7548 19.9333H14.1C13.6397 19.9333 13.2666 20.3064 13.2666 20.7666C13.2666 21.2269 13.6397 21.6 14.1 21.6H19.9333Z" fill="#1C1B1F"/>
</svg>
