<svg width="24" height="24" viewBox="0 0 24 24" fill="none" xmlns="http://www.w3.org/2000/svg">
<path fill-rule="evenodd" clip-rule="evenodd" d="M11.2472 2.01999C9.76514 2.16191 8.66282 2.47532 7.41484 3.10963C5.93812 3.86014 4.60883 5.05063 3.6426 6.488C3.0058 7.4353 2.42293 8.8239 2.19924 9.9266C2.03097 10.7559 2 11.0779 2 11.9976C2 13.2152 2.13089 14.0512 2.49238 15.1431C2.69792 15.7639 3.16962 16.7726 3.48829 17.2727C4.28969 18.5303 5.45528 19.6949 6.71093 20.4925C7.10195 20.7408 8.08316 21.2191 8.56846 21.3978C9.07316 21.5837 10.0106 21.8181 10.5824 21.9014C12.4778 22.1773 14.5059 21.8691 16.2444 21.0408C17.3636 20.5077 18.1583 19.9447 19.051 19.0527C19.9023 18.202 20.4394 17.459 20.9621 16.4088C22.1695 13.9831 22.3294 11.2069 21.4107 8.62024C21.2261 8.10031 20.7734 7.16552 20.4917 6.72245C19.6652 5.42235 18.3933 4.17063 17.1439 3.4277C15.5293 2.46763 13.7384 1.97915 11.912 2.00068C11.6217 2.00408 11.3225 2.0128 11.2472 2.01999ZM12.6746 4.02734C14.5984 4.20662 16.294 4.99824 17.6445 6.34773C19.6716 8.37325 20.4481 11.2317 19.7322 14.0334C19.0939 16.5313 17.1225 18.6715 14.6598 19.54C12.6188 20.2599 10.4092 20.1272 8.44938 19.1671C4.82384 17.391 3.09485 13.1432 4.44345 9.32523C4.70707 8.57894 5.0869 7.877 5.59485 7.19721C7.23507 5.00226 9.97439 3.77574 12.6746 4.02734ZM11.6729 7.04748C10.804 7.37247 10.7582 8.52713 11.5992 8.90748C12.0856 9.12748 12.7024 8.87482 12.9201 8.36645C12.9954 8.1905 12.9954 7.80041 12.92 7.62118C12.8378 7.42608 12.6739 7.24477 12.4734 7.12735C12.2633 7.00434 11.8883 6.96695 11.6729 7.04748ZM11.5793 10.0966C11.4716 10.1467 11.3243 10.2552 11.2518 10.3376C10.9802 10.6467 10.9942 10.4891 10.9819 13.3819C10.9743 15.1865 10.9843 16.0618 11.0142 16.2059C11.0681 16.4653 11.245 16.7042 11.4997 16.8616C11.6683 16.9657 11.7256 16.9796 11.9872 16.9796C12.2395 16.9796 12.3105 16.9638 12.4652 16.8729C12.6698 16.7527 12.8325 16.5762 12.9249 16.374C12.9803 16.2528 12.9874 15.9251 12.9874 13.5019C12.9874 10.472 13.0019 10.6485 12.7286 10.3376C12.4461 10.0161 11.9679 9.91585 11.5793 10.0966Z" fill="#1C1B1F"/>
</svg>
