<svg width="24" height="24" viewBox="0 0 24 24" fill="none" xmlns="http://www.w3.org/2000/svg">
<path d="M18.4385 10.7405H15.2V11.8212H18.4385V10.7405Z" fill="#1C1B1F"/>
<path d="M18.4385 8.56365H13.3462V9.64431H18.4385V8.56365Z" fill="#1C1B1F"/>
<path d="M11.4308 13.0651C12 12.5131 12.3308 11.7512 12.3308 10.9504C12.3308 9.34111 11.0385 8.02721 9.44615 8.02721C7.85385 8.02721 6.56154 9.34111 6.56154 10.9504C6.56154 11.7512 6.88461 12.5131 7.46154 13.0651C6.4 13.7026 5.71538 14.7988 5.62308 16.035L5.60769 16.2449H6.95385L6.96923 16.0739C7.1 14.8222 8.16154 13.8814 9.45385 13.8814C10.7462 13.8814 11.8077 14.8222 11.9385 16.0739L11.9538 16.2449H13.3L13.2846 16.035C13.1923 14.8066 12.5154 13.7026 11.4462 13.0651H11.4308ZM9.43846 12.5131C8.58462 12.5131 7.89231 11.8134 7.89231 10.9504C7.89231 10.0875 8.58462 9.38775 9.43846 9.38775C10.2923 9.38775 10.9846 10.0875 10.9846 10.9504C10.9846 11.8134 10.2923 12.5131 9.43846 12.5131Z" fill="#1C1B1F"/>
<path d="M18.6692 4H5.33077C3.49231 4 2 5.50826 2 7.36637V16.6336C2 18.4917 3.49231 20 5.33077 20H18.6692C20.5077 20 22 18.4917 22 16.6336V7.36637C22 5.50826 20.5077 4 18.6692 4ZM20.3385 16.6336C20.3385 17.5666 19.5923 18.3207 18.6692 18.3207H5.33077C4.40769 18.3207 3.66154 17.5666 3.66154 16.6336V7.36637C3.66154 6.43343 4.40769 5.6793 5.33077 5.6793H18.6692C19.5923 5.6793 20.3385 6.43343 20.3385 7.36637V16.6336Z" fill="#1C1B1F"/>
</svg>
