<svg width="24" height="24" viewBox="0 0 24 24" fill="none" xmlns="http://www.w3.org/2000/svg">
<path fill-rule="evenodd" clip-rule="evenodd" d="M17.5814 10.4194C15.1423 10.4194 13.1628 12.3414 13.1628 14.7097C13.1628 17.0779 15.1423 19 17.5814 19C20.0205 19 22 17.0779 22 14.7097C22 12.3414 20.0205 10.4194 17.5814 10.4194ZM17.5814 11.7742C19.2502 11.7742 20.6047 13.0893 20.6047 14.7097C20.6047 16.3301 19.2502 17.6452 17.5814 17.6452C15.9126 17.6452 14.5581 16.3301 14.5581 14.7097C14.5581 13.0893 15.9126 11.7742 17.5814 11.7742Z" fill="#1C1B1F"/>
<path fill-rule="evenodd" clip-rule="evenodd" d="M15.7721 15.64L16.7023 16.5432C16.8437 16.6805 17.0372 16.7519 17.2363 16.741C17.4344 16.7293 17.6195 16.6372 17.7423 16.4854L19.5237 14.305C19.7628 14.0115 19.7116 13.5852 19.4102 13.353C19.1088 13.1209 18.6688 13.1697 18.4298 13.4632L17.1358 15.0484L16.7591 14.6826C16.4865 14.4179 16.0447 14.4179 15.7721 14.6826C15.5005 14.9463 15.5005 15.3763 15.7721 15.64Z" fill="#1C1B1F"/>
<path fill-rule="evenodd" clip-rule="evenodd" d="M20.1395 11.5809C20.1395 9.86026 20.1395 8.77639 20.1395 7.48387C20.1395 6.82542 19.8698 6.19316 19.3907 5.7271C18.9107 5.26194 18.2595 5 17.5814 5C14.36 5 7.77953 5 4.55814 5C3.88 5 3.22884 5.26194 2.74884 5.7271C2.26977 6.19316 2 6.82542 2 7.48387V15.6129C2 16.2714 2.26977 16.9036 2.74884 17.3697C3.22884 17.8348 3.88 18.0968 4.55814 18.0968H15.1209C15.506 18.0968 15.8186 17.7933 15.8186 17.4194C15.8186 17.0454 15.506 16.7419 15.1209 16.7419C11.6577 16.7419 7.25488 16.7419 4.55814 16.7419C4.2493 16.7419 3.95442 16.6227 3.73581 16.4114C3.51814 16.1991 3.39535 15.9128 3.39535 15.6129C3.39535 13.4054 3.39535 9.69135 3.39535 7.48387C3.39535 7.184 3.51814 6.89768 3.73581 6.68542C3.95442 6.47406 4.2493 6.35484 4.55814 6.35484H17.5814C17.8902 6.35484 18.1851 6.47406 18.4037 6.68542C18.6214 6.89768 18.7442 7.184 18.7442 7.48387V11.5809C18.7442 11.9548 19.0567 12.2583 19.4419 12.2583C19.827 12.2583 20.1395 11.9548 20.1395 11.5809Z" fill="#1C1B1F"/>
<path fill-rule="evenodd" clip-rule="evenodd" d="M19.4419 8.6129H2.69768C2.31256 8.6129 2 8.91639 2 9.29032C2 9.66426 2.31256 9.96774 2.69768 9.96774H19.4419C19.827 9.96774 20.1395 9.66426 20.1395 9.29032C20.1395 8.91639 19.827 8.6129 19.4419 8.6129Z" fill="#1C1B1F"/>
<path fill-rule="evenodd" clip-rule="evenodd" d="M8.28 14.0323H5.48838C5.10326 14.0323 4.7907 14.3357 4.7907 14.7097C4.7907 15.0836 5.10326 15.3871 5.48838 15.3871H8.28C8.66512 15.3871 8.97768 15.0836 8.97768 14.7097C8.97768 14.3357 8.66512 14.0323 8.28 14.0323Z" fill="#1C1B1F"/>
</svg>
