<svg width="24" height="24" viewBox="0 0 24 24" fill="none" xmlns="http://www.w3.org/2000/svg">
<path fill-rule="evenodd" clip-rule="evenodd" d="M5.75439 1.49086C5.46343 1.1999 4.99169 1.1999 4.70073 1.49086C4.40977 1.78183 4.40977 2.25357 4.70073 2.54453L20.9619 18.8057C21.2529 19.0967 21.7246 19.0967 22.0156 18.8057C22.3066 18.5148 22.3066 18.043 22.0156 17.7521L19.4597 15.1962C19.9975 14.6566 20.4492 14.1418 20.7986 13.717C20.8212 13.6895 20.8443 13.6618 20.8675 13.6338C21.1902 13.245 21.5549 12.8054 21.5549 12.1693C21.5549 11.5331 21.1902 11.0935 20.8675 10.7047C20.8443 10.6767 20.8212 10.649 20.7986 10.6215C20.0565 9.71942 18.8533 8.41079 17.3423 7.32223C15.8372 6.23795 13.9629 5.32625 11.8944 5.32625C11.1962 5.32625 10.5201 5.43011 9.87294 5.60942L5.75439 1.49086ZM11.1316 6.86804L12.474 8.21044C14.0151 8.54935 15.2284 9.76266 15.5673 11.3038L18.406 14.1425C18.9005 13.6463 19.3198 13.1691 19.6479 12.7703C19.8571 12.5161 19.9609 12.3868 20.0233 12.2822C20.065 12.2122 20.0649 12.1917 20.0648 12.1716L20.0648 12.1693L20.0648 12.1669C20.0649 12.1468 20.065 12.1263 20.0233 12.0563C19.9609 11.9517 19.8571 11.8224 19.6479 11.5682C18.9501 10.72 17.8394 9.51691 16.4713 8.53126C15.0972 7.54132 13.527 6.81635 11.8944 6.81635C11.6384 6.81635 11.384 6.83417 11.1316 6.86804Z" fill="#1C1B1F"/>
<path d="M17.5306 16.8783L16.4645 15.8122C15.092 16.7996 13.5243 17.5222 11.8944 17.5222C10.2617 17.5222 8.69157 16.7972 7.31748 15.8073C5.94932 14.8216 4.83866 13.6185 4.14089 12.7703C3.93171 12.5161 3.82787 12.3868 3.76551 12.2822C3.7238 12.2122 3.72386 12.1917 3.72393 12.1716L3.72393 12.1693L3.72393 12.1669C3.72386 12.1468 3.7238 12.1263 3.76551 12.0563C3.82787 11.9517 3.93171 11.8224 4.14089 11.5682C4.83866 10.72 5.94932 9.51691 7.31748 8.53126C7.68407 8.26715 8.06462 8.02191 8.45658 7.80426L7.36629 6.71397C7.04654 6.90654 6.7395 7.11111 6.44646 7.32223C4.93547 8.41079 3.7323 9.71942 2.99017 10.6215C2.96758 10.6489 2.94463 10.6766 2.92145 10.7045C2.59879 11.0933 2.23383 11.5331 2.23383 12.1693C2.23383 12.8054 2.59861 13.245 2.92127 13.6338C2.94448 13.6618 2.96755 13.6895 2.99017 13.717C3.7323 14.6191 4.93547 15.9277 6.44646 17.0163C7.95152 18.1006 9.82585 19.0123 11.8944 19.0123C13.9629 19.0123 15.8372 18.1006 17.3423 17.0163C17.4056 16.9707 17.4684 16.9247 17.5306 16.8783Z" fill="#1C1B1F"/>
<path d="M10.849 9.71597C9.79148 10.0364 9.02168 11.0187 9.02168 12.1809C9.02168 13.6031 10.1746 14.7561 11.5969 14.7561C12.759 14.7561 13.7414 13.9863 14.0618 12.9288L15.1994 14.0664C14.5198 15.3622 13.1616 16.2462 11.5969 16.2462C9.35167 16.2462 7.53157 14.4261 7.53157 12.1809C7.53157 10.6162 8.41556 9.25795 9.71136 8.57835L10.849 9.71597Z" fill="#1C1B1F"/>
</svg>
