<svg width="24" height="24" viewBox="0 0 24 24" fill="none" xmlns="http://www.w3.org/2000/svg">
<path d="M11.561 9.37591H5.86629V10.6894H11.561V9.37591Z" fill="#1C1B1F"/>
<path d="M14.8232 6.59343H5.86629V7.90695H14.8232V6.59343Z" fill="#1C1B1F"/>
<path d="M8.8385 12.1662H5.86629V13.4797H8.8385V12.1662Z" fill="#1C1B1F"/>
<path d="M21.6536 7.51833C21.4362 7.30848 21.1381 7.1919 20.8321 7.1919C20.526 7.1919 20.2279 7.30848 20.0105 7.51833L13.8727 13.4408C13.8244 13.4875 13.7922 13.5419 13.7761 13.6118L13.4056 15.0497C13.3733 15.1741 13.4056 15.3062 13.5022 15.3917C13.5989 15.4849 13.7277 15.516 13.8566 15.4849L15.3468 15.1274C15.4112 15.1119 15.4756 15.0808 15.524 15.0342L21.6617 9.11166C21.8792 8.9018 22 8.61423 22 8.31888C22 8.02353 21.8792 7.73596 21.6617 7.52611L21.6536 7.51833Z" fill="#1C1B1F"/>
<path d="M17.7068 16.3788C17.7068 16.8062 17.3443 17.156 16.9013 17.156H7.3242L3.61095 20.4437V4.33169C3.61095 3.90421 3.97342 3.55446 4.41643 3.55446H16.9013C17.3443 3.55446 17.7068 3.90421 17.7068 4.33169V7.35512L19.3178 5.80066V4.28506C19.2936 3.01817 18.2223 2 16.9094 2H4.41643C3.07934 2 2 3.04149 2 4.33169V20.4437C2 21.7961 3.66734 22.5033 4.69835 21.5862L7.95248 18.7104H16.9013C18.2384 18.7104 19.3178 17.669 19.3178 16.3788V13.3631L17.7068 14.9176V16.3788Z" fill="#1C1B1F"/>
</svg>
