<svg width="24" height="24" viewBox="0 0 24 24" fill="none" xmlns="http://www.w3.org/2000/svg">
<path d="M9.47164 15.3808L18.241 6.32071C18.4479 6.1069 18.6893 6 18.9653 6C19.2412 6 19.4826 6.1069 19.6896 6.32071C19.8965 6.53452 20 6.78842 20 7.08241C20 7.37639 19.8965 7.63029 19.6896 7.8441L10.196 17.6793C9.98901 17.8931 9.74757 18 9.47164 18C9.19571 18 8.95428 17.8931 8.74733 17.6793L4.298 13.0824C4.09106 12.8686 3.99189 12.6147 4.00052 12.3207C4.00914 12.0267 4.11692 11.7728 4.32387 11.559C4.53082 11.3452 4.77656 11.2383 5.06111 11.2383C5.34566 11.2383 5.59141 11.3452 5.79836 11.559L9.47164 15.3808Z" fill="#1C1B1F"/>
</svg>
