<svg width="24" height="24" viewBox="0 0 24 24" fill="none" xmlns="http://www.w3.org/2000/svg">
<path d="M21.0156 20.2168L16.2555 15.2662C17.4794 13.8113 18.15 11.9807 18.15 10.075C18.15 5.62251 14.5275 2 10.075 2C5.62251 2 2 5.62251 2 10.075C2 14.5275 5.62251 18.15 10.075 18.15C11.7465 18.15 13.3394 17.6458 14.7013 16.6888L19.4975 21.677C19.6979 21.8852 19.9676 22 20.2565 22C20.53 22 20.7895 21.8957 20.9864 21.7061C21.4049 21.3034 21.4182 20.6357 21.0156 20.2168ZM10.075 4.10652C13.3661 4.10652 16.0435 6.78391 16.0435 10.075C16.0435 13.3661 13.3661 16.0435 10.075 16.0435C6.78391 16.0435 4.10652 13.3661 4.10652 10.075C4.10652 6.78391 6.78391 4.10652 10.075 4.10652Z" fill="#1C1B1F"/>
</svg>
