<svg width="24" height="24" viewBox="0 0 24 24" fill="none" xmlns="http://www.w3.org/2000/svg">
<path fill-rule="evenodd" clip-rule="evenodd" d="M5.00012 20.4637C5.00012 21.8645 6.1527 23 7.5745 23H16.4257C17.8475 23 19.0001 21.8645 19.0001 20.4637V3.53627C19.0001 2.13552 17.8475 1 16.4257 1H7.5745C6.1527 1 5.00012 2.13552 5.00012 3.53627V20.4637ZM7.5745 21.1762C7.17512 21.1762 6.85136 20.8572 6.85136 20.4637V3.53627C6.85136 3.1428 7.17512 2.82383 7.5745 2.82383H16.4257C16.8251 2.82383 17.1489 3.1428 17.1489 3.53627V20.4637C17.1489 20.8572 16.8251 21.1762 16.4257 21.1762H7.5745Z" fill="#1C1B1F"/>
<path fill-rule="evenodd" clip-rule="evenodd" d="M9.42583 19.6943C9.42583 20.198 9.84024 20.6062 10.3514 20.6062H13.649C14.1602 20.6062 14.5746 20.198 14.5746 19.6943C14.5746 19.1907 14.1602 18.7824 13.649 18.7824H10.3514C9.84024 18.7824 9.42583 19.1907 9.42583 19.6943Z" fill="#1C1B1F"/>
<path fill-rule="evenodd" clip-rule="evenodd" d="M8.47129 2.68138C8.47129 4.08213 9.62387 5.21764 11.0457 5.21764H12.9548C14.3766 5.21764 15.5291 4.08213 15.5291 2.68138V1.91195C15.5291 1.40831 15.1147 1.00003 14.6035 1.00003H9.39691C8.8857 1.00003 8.47129 1.40831 8.47129 1.91195V2.68138ZM10.337 2.82386H13.6634C13.5964 3.14906 13.3046 3.39381 12.9548 3.39381H11.0457C10.6958 3.39381 10.404 3.14906 10.337 2.82386Z" fill="#1C1B1F"/>
</svg>
