<svg width="24" height="24" viewBox="0 0 24 24" fill="none" xmlns="http://www.w3.org/2000/svg">
<path d="M6.16667 8.66667H17.8333V7H6.16667V8.66667Z" fill="#1C1B1F"/>
<path d="M17.8333 12.8333H6.16667V11.1667H17.8333V12.8333Z" fill="#1C1B1F"/>
<path d="M13.6667 17H17.8333V15.3333H13.6667V17Z" fill="#1C1B1F"/>
<path fill-rule="evenodd" clip-rule="evenodd" d="M2 4.5C2 3.11929 3.11929 2 4.5 2H19.5C20.8807 2 22 3.11929 22 4.5V19.5C22 20.8807 20.8807 22 19.5 22H4.5C3.11929 22 2 20.8807 2 19.5V4.5ZM4.5 3.66667H19.5C19.9602 3.66667 20.3333 4.03976 20.3333 4.5V19.5C20.3333 19.9602 19.9602 20.3333 19.5 20.3333H4.5C4.03976 20.3333 3.66667 19.9602 3.66667 19.5V4.5C3.66667 4.03976 4.03976 3.66667 4.5 3.66667Z" fill="#1C1B1F"/>
</svg>
