<svg width="24" height="24" viewBox="0 0 24 24" fill="none" xmlns="http://www.w3.org/2000/svg">
<path d="M19.4172 15.2822C19.4851 15.2822 19.5446 15.2822 19.6126 15.2822V13.1452H17.4715V15.3078C17.5395 15.3078 17.6075 15.2908 17.6839 15.2908C18.2617 15.2908 18.8394 15.2908 19.4172 15.2908V15.2822Z" fill="#1C1B1F"/>
<path d="M17.4715 15.2993C17.4715 15.2993 17.4036 15.2822 17.3696 15.2822C16.7239 15.2822 16.0867 15.2822 15.4494 15.2822C15.407 15.2822 15.3645 15.2993 15.322 15.3163C15.322 15.444 15.3305 15.5802 15.3305 15.708C15.3305 16.2869 15.3305 16.8659 15.339 17.4449H17.4715V15.3078V15.2993Z" fill="#1C1B1F"/>
<path d="M19.6126 17.4619H17.4715V19.5905C17.4715 19.5905 17.531 19.6075 17.548 19.6075C18.1937 19.6075 18.8394 19.6075 19.4851 19.6075C19.6211 19.6075 19.6211 19.5309 19.6211 19.4372C19.6211 18.8412 19.6211 18.2367 19.6211 17.6407C19.6211 17.5811 19.6211 17.5215 19.6126 17.4619Z" fill="#1C1B1F"/>
<path d="M15.322 13.2303C15.322 13.2303 15.3135 13.1622 15.305 13.1281H13.1895V15.2822H13.4019C13.9711 15.2822 14.5489 15.2822 15.1181 15.2822C15.1776 15.2822 15.2455 15.2993 15.305 15.3078C15.305 15.2737 15.322 15.2397 15.322 15.2056C15.322 14.55 15.322 13.8859 15.322 13.2303Z" fill="#1C1B1F"/>
<path d="M21.7706 15.2908H19.6381V17.4193H21.7706V15.2908Z" fill="#1C1B1F"/>
<path d="M15.3305 17.4364V17.4449H15.339V17.4364H15.3305Z" fill="#1C1B1F"/>
<path d="M13.1895 19.5734H15.3305V17.4449H13.1895V19.5734Z" fill="#1C1B1F"/>
<path d="M15.441 19.5734C15.3985 19.5734 15.356 19.5905 15.3135 19.6075C15.3135 19.7352 15.322 19.8714 15.322 19.9991C15.322 20.5781 15.322 21.1571 15.3305 21.7361H17.463V19.599C17.463 19.599 17.3951 19.5734 17.3611 19.5734C16.7154 19.5734 16.0782 19.5734 15.441 19.5734Z" fill="#1C1B1F"/>
<path d="M21.7706 19.5819H19.6381V21.7105H21.7706V19.5819Z" fill="#1C1B1F"/>
<path d="M8.87341 11.0762H4.18352C2.97706 11.0762 2 10.0971 2 8.88804V4.18817C2 2.97914 2.98556 2 4.18352 2H8.86491C10.0714 2 11.0484 2.97914 11.0484 4.18817V8.87952C11.0484 10.0885 10.0714 11.0677 8.86491 11.0677L8.87341 11.0762ZM4.18352 3.70285C3.92014 3.70285 3.69924 3.92422 3.69924 4.18817V8.87952C3.69924 9.14347 3.92014 9.36484 4.18352 9.36484H8.86491C9.12829 9.36484 9.34919 9.14347 9.34919 8.87952V4.18817C9.34919 3.92422 9.12829 3.70285 8.86491 3.70285H4.18352Z" fill="#1C1B1F"/>
<path d="M8.87341 22H4.18352C2.97706 22 2 21.0209 2 19.8118V15.1205C2 13.9115 2.98556 12.9323 4.18352 12.9323H8.86491C10.0714 12.9323 11.0484 13.9115 11.0484 15.1205V19.8118C11.0484 21.0209 10.0714 22 8.86491 22H8.87341ZM4.18352 14.6266C3.92014 14.6266 3.69924 14.848 3.69924 15.112V19.8033C3.69924 20.0673 3.92014 20.2886 4.18352 20.2886H8.86491C9.12829 20.2886 9.34919 20.0673 9.34919 19.8033V15.112C9.34919 14.848 9.12829 14.6266 8.86491 14.6266H4.18352Z" fill="#1C1B1F"/>
<path d="M19.8165 11.0762H15.1351C13.9286 11.0762 12.9516 10.0971 12.9516 8.88804V4.18817C12.9516 2.97914 13.9371 2 15.1351 2H19.8165C21.0229 2 22 2.97914 22 4.18817V8.87952C22 10.0885 21.0144 11.0677 19.8165 11.0677V11.0762ZM15.1351 3.70285C14.8717 3.70285 14.6508 3.92422 14.6508 4.18817V8.87952C14.6508 9.14347 14.8717 9.36484 15.1351 9.36484H19.8165C20.0799 9.36484 20.3008 9.14347 20.3008 8.87952V4.18817C20.3008 3.92422 20.0799 3.70285 19.8165 3.70285H15.1351Z" fill="#1C1B1F"/>
</svg>
