<svg width="24" height="24" viewBox="0 0 24 24" fill="none" xmlns="http://www.w3.org/2000/svg">
<path fill-rule="evenodd" clip-rule="evenodd" d="M10.1818 13.8857C5.52706 14.2354 2 15.9038 2 17.9091C2 20.1685 6.47715 22 12 22C17.5228 22 22 20.1685 22 17.9091C22 15.9038 18.4729 14.2354 13.8182 13.8857V15.7094C15.6377 15.8578 17.2149 16.2215 18.3826 16.6992C19.1581 17.0164 19.6654 17.3482 19.9501 17.6236C20.1015 17.7701 20.1569 17.8654 20.1758 17.9091C20.1569 17.9528 20.1015 18.0481 19.9501 18.1946C19.6654 18.47 19.1581 18.8018 18.3826 19.119C16.8407 19.7498 14.585 20.1818 12 20.1818C9.415 20.1818 7.15933 19.7498 5.61736 19.119C4.84191 18.8018 4.33463 18.47 4.04989 18.1946C3.89847 18.0481 3.84312 17.9528 3.82418 17.9091C3.84312 17.8654 3.89847 17.7701 4.04989 17.6236C4.33463 17.3482 4.84191 17.0164 5.61736 16.6992C6.78515 16.2215 8.36229 15.8578 10.1818 15.7094V13.8857ZM20.1848 17.8814C20.1848 17.8814 20.1847 17.8845 20.1828 17.8907C20.1836 17.8845 20.1848 17.8814 20.1848 17.8814ZM3.81518 17.8814C3.81518 17.8814 3.81643 17.8845 3.81719 17.8907C3.81527 17.8845 3.81518 17.8814 3.81518 17.8814ZM3.81518 17.9368C3.81518 17.9368 3.81527 17.9337 3.81719 17.9276C3.81643 17.9338 3.81518 17.9368 3.81518 17.9368ZM20.1828 17.9276C20.1847 17.9338 20.1848 17.9368 20.1848 17.9368C20.1848 17.9368 20.1836 17.9338 20.1828 17.9276Z" fill="#1C1B1F"/>
<path fill-rule="evenodd" clip-rule="evenodd" d="M14.7273 6.54545C14.7273 8.05169 13.5062 9.27273 12 9.27273C10.4938 9.27273 9.27273 8.05169 9.27273 6.54545C9.27273 5.03922 10.4938 3.81818 12 3.81818C13.5062 3.81818 14.7273 5.03922 14.7273 6.54545ZM12.9091 11C14.9839 10.5788 16.5455 8.74451 16.5455 6.54545C16.5455 4.03507 14.5104 2 12 2C9.48961 2 7.45455 4.03507 7.45455 6.54545C7.45455 8.74451 9.01615 10.5788 11.0909 11V17.4545C11.0909 17.9566 11.4979 18.3636 12 18.3636C12.5021 18.3636 12.9091 17.9566 12.9091 17.4545V11Z" fill="#1C1B1F"/>
</svg>
