<svg width="24" height="24" viewBox="0 0 24 24" fill="none" xmlns="http://www.w3.org/2000/svg">
<path fill-rule="evenodd" clip-rule="evenodd" d="M8.11364 3.83673C8.11364 2.82234 8.93784 2 9.95455 2H14.0455C15.0622 2 15.8864 2.82235 15.8864 3.83673V6.08163H19.1507C19.1557 6.08159 19.1608 6.08159 19.1658 6.08163H20.1818C20.6337 6.08163 21 6.44711 21 6.89796C21 7.3488 20.6337 7.71429 20.1818 7.71429H19.9209L19.0882 19.3464C18.9811 20.8415 17.7342 22 16.2318 22H7.7682C6.26582 22 5.01888 20.8416 4.91184 19.3464L4.07908 7.71429H3.81818C3.36631 7.71429 3 7.3488 3 6.89796C3 6.44711 3.36631 6.08163 3.81818 6.08163H4.83415C4.83923 6.08159 4.8443 6.08159 4.84936 6.08163H8.11364V3.83673ZM5.71962 7.71429L6.54404 19.2301C6.58992 19.8709 7.12432 20.3673 7.7682 20.3673H16.2318C16.8756 20.3673 17.4101 19.8709 17.456 19.2301L18.2804 7.71429H5.71962ZM14.25 6.08163H9.75V3.83673C9.75 3.72403 9.84158 3.63265 9.95455 3.63265H14.0455C14.1584 3.63265 14.25 3.72402 14.25 3.83673V6.08163ZM9.95455 10.1633C10.4064 10.1633 10.7727 10.5287 10.7727 10.9796V17.102C10.7727 17.5529 10.4064 17.9184 9.95455 17.9184C9.50268 17.9184 9.13636 17.5529 9.13636 17.102V10.9796C9.13636 10.5287 9.50268 10.1633 9.95455 10.1633ZM14.0455 10.1633C14.4973 10.1633 14.8636 10.5287 14.8636 10.9796V17.102C14.8636 17.5529 14.4973 17.9184 14.0455 17.9184C13.5936 17.9184 13.2273 17.5529 13.2273 17.102V10.9796C13.2273 10.5287 13.5936 10.1633 14.0455 10.1633Z" fill="#1C1B1F"/>
</svg>
