<svg width="24" height="24" viewBox="0 0 24 24" fill="none" xmlns="http://www.w3.org/2000/svg">
<path d="M21.0854 2.30271C20.8001 2.12334 20.4736 2.01999 20.1371 2.00248C19.8005 1.98498 19.4651 2.05391 19.1627 2.20271L12.7991 5.30816H7.45454C6.00842 5.30984 4.62202 5.88506 3.59946 6.90762C2.5769 7.93018 2.00168 9.31658 2 10.7627V11.5336C2.00066 12.8221 2.45747 14.0688 3.28947 15.0528C4.12147 16.0367 5.27494 16.6943 6.54545 16.9091V21.0909C6.54545 21.332 6.64123 21.5632 6.81172 21.7337C6.9822 21.9042 7.21344 22 7.45454 22H11.0909C11.332 22 11.5632 21.9042 11.7337 21.7337C11.9042 21.5632 12 21.332 12 21.0909V16.9882H12.7545L19 20.7991C19.301 20.983 19.6456 21.0833 19.9982 21.0897C20.3509 21.096 20.6989 21.0083 21.0063 20.8354C21.3084 20.6696 21.5602 20.4253 21.7351 20.1283C21.9099 19.8314 22.0015 19.4928 22 19.1481V3.9418C22.0003 3.61321 21.9164 3.29002 21.7563 3.00308C21.5962 2.71613 21.3652 2.475 21.0854 2.30271ZM3.81818 11.5336V10.7627C3.81818 9.79828 4.2013 8.87336 4.88325 8.19141C5.5652 7.50946 6.49012 7.12634 7.45454 7.12634H12.1009V15.17H7.45454C6.49012 15.17 5.5652 14.7869 4.88325 14.1049C4.2013 13.423 3.81818 12.498 3.81818 11.5336ZM10.1818 20.1818H8.36363V17.0472H10.1818V20.1818ZM20.1818 19.1481C20.1824 19.1697 20.1765 19.191 20.1648 19.2092C20.1531 19.2273 20.1362 19.2416 20.1163 19.25C20.0909 19.2657 20.0617 19.274 20.0318 19.274C20.0019 19.274 19.9727 19.2657 19.9473 19.25L13.9191 15.5718V6.78543L19.96 3.83634C19.9854 3.82319 20.0139 3.81702 20.0425 3.81846C20.071 3.8199 20.0987 3.82889 20.1227 3.84453C20.1408 3.85348 20.1559 3.86737 20.1664 3.88459C20.1768 3.90181 20.1822 3.92165 20.1818 3.9418V19.1481Z" fill="#1C1B1F"/>
</svg>
