<svg width="24" height="24" viewBox="0 0 24 24" fill="none" xmlns="http://www.w3.org/2000/svg">
<path fill-rule="evenodd" clip-rule="evenodd" d="M5.86133 20.4382C4.5917 20.4382 3.56181 19.4084 3.56181 18.1371V9.70786H20.4382V18.1371C20.4382 19.4084 19.4083 20.4382 18.1387 20.4382H5.86133ZM22 18.1371C22 20.2702 20.2716 22 18.1387 22H5.86133C3.72842 22 2 20.2702 2 18.1371V7.39936C2 5.26635 3.72841 3.5365 5.86133 3.5365H6.60733V2.7809C6.60733 2.34962 6.95695 2 7.38824 2C7.81952 2 8.16914 2.34962 8.16914 2.7809V3.5365H15.8309V2.7809C15.8309 2.34962 16.1805 2 16.6118 2C17.043 2 17.3927 2.34962 17.3927 2.7809V3.5365H18.1387C20.2716 3.5365 22 5.26635 22 7.39936V18.1371ZM20.4382 8.14605H3.56181V7.39936C3.56181 6.12818 4.59171 5.09831 5.86133 5.09831H6.60733V6.62218C6.60733 7.05346 6.95695 7.40308 7.38824 7.40308C7.81952 7.40308 8.16914 7.05346 8.16914 6.62218V5.09831H15.8309V6.62218C15.8309 7.05346 16.1805 7.40308 16.6118 7.40308C17.043 7.40308 17.3927 7.05346 17.3927 6.62218V5.09831H18.1387C19.4083 5.09831 20.4382 6.12818 20.4382 7.39936V8.14605Z" fill="#1C1B1F"/>
<path d="M8 14C8.55228 14 9 13.5523 9 13C9 12.4477 8.55228 12 8 12C7.44771 12 7 12.4477 7 13C7 13.5523 7.44771 14 8 14Z" fill="#1C1B1F"/>
<path d="M12 14C12.5523 14 13 13.5523 13 13C13 12.4477 12.5523 12 12 12C11.4477 12 11 12.4477 11 13C11 13.5523 11.4477 14 12 14Z" fill="#1C1B1F"/>
<path d="M8 18C8.55228 18 9 17.5523 9 17C9 16.4477 8.55228 16 8 16C7.44771 16 7 16.4477 7 17C7 17.5523 7.44771 18 8 18Z" fill="#1C1B1F"/>
<path d="M16 14C16.5523 14 17 13.5523 17 13C17 12.4477 16.5523 12 16 12C15.4477 12 15 12.4477 15 13C15 13.5523 15.4477 14 16 14Z" fill="#1C1B1F"/>
<path d="M16 18C16.5523 18 17 17.5523 17 17C17 16.4477 16.5523 16 16 16C15.4477 16 15 16.4477 15 17C15 17.5523 15.4477 18 16 18Z" fill="#1C1B1F"/>
<path d="M12 18C12.5523 18 13 17.5523 13 17C13 16.4477 12.5523 16 12 16C11.4477 16 11 16.4477 11 17C11 17.5523 11.4477 18 12 18Z" fill="#1C1B1F"/>
</svg>
