<svg width="24" height="24" viewBox="0 0 24 24" fill="none" xmlns="http://www.w3.org/2000/svg">
<path d="M7.83333 14.9474H6.16667V16.6316H7.83333V14.9474Z" fill="#1C1B1F"/>
<path d="M6.16667 7.36842H11.1667V9.05263H6.16667V7.36842Z" fill="#1C1B1F"/>
<path d="M11.1667 14.9474H9.5V16.6316H11.1667V14.9474Z" fill="#1C1B1F"/>
<path d="M12.8333 14.9474H14.5V16.6316H12.8333V14.9474Z" fill="#1C1B1F"/>
<path d="M17.8333 14.9474H16.1667V16.6316H17.8333V14.9474Z" fill="#1C1B1F"/>
<path fill-rule="evenodd" clip-rule="evenodd" d="M2 7.36842C2 5.50809 3.49238 4 5.33333 4H18.6667C20.5076 4 22 5.50809 22 7.36842V16.6316C22 18.4919 20.5076 20 18.6667 20H5.33333C3.49238 20 2 18.4919 2 16.6316V7.36842ZM5.33333 5.68421H18.6667C19.5871 5.68421 20.3333 6.43826 20.3333 7.36842V16.6316C20.3333 17.5617 19.5871 18.3158 18.6667 18.3158H5.33333C4.41286 18.3158 3.66667 17.5617 3.66667 16.6316V7.36842C3.66667 6.43826 4.41286 5.68421 5.33333 5.68421Z" fill="#1C1B1F"/>
</svg>
