<svg width="24" height="24" viewBox="0 0 24 24" fill="none" xmlns="http://www.w3.org/2000/svg">
<path d="M5.14289 19.9643H8.57146V14.25C8.57146 13.9262 8.68099 13.6548 8.90003 13.4357C9.11908 13.2167 9.39051 13.1071 9.71432 13.1071H14.2857C14.6096 13.1071 14.881 13.2167 15.1 13.4357C15.3191 13.6548 15.4286 13.9262 15.4286 14.25V19.9643H18.8572V9.67857L12 4.53571L5.14289 9.67857V19.9643ZM2.85718 19.9643V9.67857C2.85718 9.31667 2.93813 8.97381 3.10003 8.65C3.26194 8.32619 3.48575 8.05952 3.77146 7.85L10.6286 2.70714C11.0286 2.40238 11.4857 2.25 12 2.25C12.5143 2.25 12.9715 2.40238 13.3715 2.70714L20.2286 7.85C20.5143 8.05952 20.7381 8.32619 20.9 8.65C21.0619 8.97381 21.1429 9.31667 21.1429 9.67857V19.9643C21.1429 20.5929 20.9191 21.131 20.4715 21.5786C20.0238 22.0262 19.4857 22.25 18.8572 22.25H14.2857C13.9619 22.25 13.6905 22.1405 13.4715 21.9214C13.2524 21.7024 13.1429 21.431 13.1429 21.1071V15.3929H10.8572V21.1071C10.8572 21.431 10.7477 21.7024 10.5286 21.9214C10.3096 22.1405 10.0381 22.25 9.71432 22.25H5.14289C4.51432 22.25 3.97623 22.0262 3.52861 21.5786C3.08099 21.131 2.85718 20.5929 2.85718 19.9643Z" fill="#1C1B1F"/>
</svg>
