<svg width="24" height="24" viewBox="0 0 24 24" fill="none" xmlns="http://www.w3.org/2000/svg">
<path d="M18.3636 20H5.63636C4.67226 19.9989 3.74793 19.602 3.0662 18.8962C2.38447 18.1904 2.00103 17.2334 2 16.2353V7.76471C2.00103 6.76657 2.38447 5.80962 3.0662 5.10383C3.74793 4.39804 4.67226 4.00106 5.63636 4H18.3636C19.3277 4.00106 20.2521 4.39804 20.9338 5.10383C21.6155 5.80962 21.999 6.76657 22 7.76471V16.2353C21.999 17.2334 21.6155 18.1904 20.9338 18.8962C20.2521 19.602 19.3277 19.9989 18.3636 20ZM5.63636 5.88235C5.15432 5.88292 4.69218 6.08143 4.35132 6.43431C4.01047 6.7872 3.81873 7.26565 3.81818 7.76471V16.2353C3.81873 16.7344 4.01047 17.2128 4.35132 17.5657C4.69218 17.9186 5.15432 18.1171 5.63636 18.1176H18.3636C18.8457 18.1171 19.3078 17.9186 19.6487 17.5657C19.9895 17.2128 20.1813 16.7344 20.1818 16.2353V7.76471C20.1813 7.26565 19.9895 6.7872 19.6487 6.43431C19.3078 6.08143 18.8457 5.88292 18.3636 5.88235H5.63636Z" fill="#1C1B1F"/>
<path d="M12 13.3493C10.9888 13.3496 10.0065 13.0005 9.20881 12.3571L3.25972 7.56664C3.06935 7.41331 2.94562 7.18797 2.91573 6.94019C2.88585 6.69241 2.95226 6.44249 3.10036 6.2454C3.24847 6.04832 3.46612 5.92022 3.70546 5.88928C3.94479 5.85834 4.18619 5.92709 4.37655 6.08042L10.3256 10.8709C10.804 11.2571 11.3933 11.4668 12 11.4668C12.6066 11.4668 13.1959 11.2571 13.6743 10.8709L19.6234 6.08042C19.8137 5.92709 20.0551 5.85834 20.2945 5.88928C20.5338 5.92022 20.7514 6.04832 20.8995 6.2454C21.0476 6.44249 21.1141 6.69241 21.0842 6.94019C21.0543 7.18797 20.9306 7.41331 20.7402 7.56664L14.7911 12.3571C13.9934 13.0002 13.0111 13.3494 12 13.3493Z" fill="#1C1B1F"/>
</svg>
