<svg width="24" height="24" viewBox="0 0 24 24" fill="none" xmlns="http://www.w3.org/2000/svg">
<path fill-rule="evenodd" clip-rule="evenodd" d="M11.1667 12.8333V20.1357C10.5712 19.8589 9.9205 19.2696 9.31484 18.2313C8.53128 16.888 7.971 15.0031 7.85541 12.8333H11.1667ZM12.8333 12.8333V20.1357C13.4288 19.8589 14.0795 19.2696 14.6852 18.2313C15.4687 16.888 16.029 15.0031 16.1446 12.8333H12.8333ZM16.1446 11.1667H12.8333V3.86432C13.4288 4.14105 14.0795 4.73045 14.6852 5.76872C15.4687 7.11198 16.029 8.99694 16.1446 11.1667ZM17.8134 12.8333C17.6902 15.3937 17.0043 17.6805 15.9682 19.3297C18.3371 18.0445 20.0131 15.6444 20.2922 12.8333H17.8134ZM20.2922 11.1667H17.8134C17.6902 8.60633 17.0043 6.31949 15.9682 4.67033C18.3371 5.95553 20.0131 8.35564 20.2922 11.1667ZM11.1667 11.1667H7.85541C7.971 8.99694 8.53128 7.11198 9.31484 5.76872C9.9205 4.73045 10.5712 4.14105 11.1667 3.86432V11.1667ZM6.18663 11.1667C6.30985 8.60633 6.9957 6.31949 8.03176 4.67033C5.66288 5.95554 3.98691 8.35564 3.70781 11.1667H6.18663ZM3.70781 12.8333C3.98691 15.6444 5.66288 18.0445 8.03176 19.3297C6.99571 17.6805 6.30985 15.3937 6.18663 12.8333H3.70781ZM12 2C17.5228 2 22 6.47715 22 12C22 17.5228 17.5228 22 12 22C6.47715 22 2 17.5228 2 12C2 6.47715 6.47715 2 12 2Z" fill="#1C1B1F"/>
</svg>
