<svg width="24" height="24" viewBox="0 0 24 24" fill="none" xmlns="http://www.w3.org/2000/svg">
<path fill-rule="evenodd" clip-rule="evenodd" d="M16.1295 12.4594C16.1295 14.7912 14.2391 16.6815 11.9073 16.6815C9.57552 16.6815 7.68522 14.7912 7.68522 12.4594C7.68522 10.1276 9.57552 8.23725 11.9073 8.23725C14.2391 8.23725 16.1295 10.1276 16.1295 12.4594ZM14.644 12.4594C14.644 13.9708 13.4188 15.1961 11.9073 15.1961C10.3959 15.1961 9.17065 13.9708 9.17065 12.4594C9.17065 10.9479 10.3959 9.72269 11.9073 9.72269C13.4188 9.72269 14.644 10.9479 14.644 12.4594Z" fill="#1C1B1F"/>
<path fill-rule="evenodd" clip-rule="evenodd" d="M11.908 5.3833C9.77229 5.3833 7.83488 6.32319 6.27591 7.44481C4.71107 8.57064 3.46364 9.92528 2.69202 10.8621C2.66863 10.8905 2.64493 10.9191 2.62106 10.9478C2.28168 11.3566 1.90802 11.8066 1.90802 12.4592C1.90802 13.1118 2.28163 13.5618 2.62101 13.9705C2.6449 13.9993 2.66861 14.0279 2.69202 14.0563C3.46364 14.9931 4.71107 16.3477 6.27591 17.4736C7.83488 18.5952 9.77229 19.5351 11.908 19.5351C14.0438 19.5351 15.9812 18.5952 17.5401 17.4736C19.105 16.3477 20.3524 14.9931 21.124 14.0563C21.1474 14.0279 21.171 13.9994 21.1949 13.9707C21.5343 13.562 21.908 13.1118 21.908 12.4592C21.908 11.8066 21.5344 11.3566 21.195 10.9479C21.1711 10.9191 21.1474 10.8905 21.124 10.8621C20.3524 9.92528 19.105 8.57064 17.5401 7.44481C15.9812 6.32319 14.0438 5.3833 11.908 5.3833ZM3.8386 11.8065C4.56593 10.9234 5.72105 9.67393 7.14342 8.6506C8.57166 7.62304 10.2061 6.86873 11.908 6.86873C13.6099 6.86873 15.2444 7.62304 16.6726 8.6506C18.095 9.67393 19.2501 10.9234 19.9774 11.8065C20.1959 12.0718 20.3068 12.2094 20.3738 12.3218C20.4218 12.4022 20.4226 12.4291 20.4226 12.4592C20.4226 12.4893 20.4218 12.5161 20.3738 12.5966C20.3068 12.709 20.1959 12.8466 19.9774 13.1119C19.2501 13.995 18.095 15.2445 16.6726 16.2678C15.2444 17.2953 13.6099 18.0497 11.908 18.0497C10.2061 18.0497 8.57166 17.2953 7.14342 16.2678C5.72105 15.2445 4.56593 13.9949 3.8386 13.1119C3.62013 12.8466 3.50928 12.709 3.44222 12.5966C3.39422 12.5161 3.39345 12.4893 3.39345 12.4592C3.39345 12.4291 3.39422 12.4022 3.44222 12.3218C3.50928 12.2094 3.62013 12.0718 3.8386 11.8065Z" fill="#1C1B1F"/>
</svg>
