<svg width="24" height="24" viewBox="0 0 24 24" fill="none" xmlns="http://www.w3.org/2000/svg">
<path d="M14.6667 13C13.7462 13 13 13.7462 13 14.6667V20.5C13 20.9602 13.3731 21.3333 13.8333 21.3333C14.2936 21.3333 14.6667 20.9602 14.6667 20.5V15.8452L20.7441 21.9226C21.0695 22.248 21.5972 22.248 21.9226 21.9226C22.248 21.5972 22.248 21.0695 21.9226 20.7441L15.8452 14.6667H20.5C20.9602 14.6667 21.3333 14.2936 21.3333 13.8333C21.3333 13.3731 20.9602 13 20.5 13H14.6667Z" fill="#1C1B1F"/>
<path d="M9.5 11.1667C10.4205 11.1667 11.1667 10.4205 11.1667 9.5V3.66667C11.1667 3.20643 10.7936 2.83333 10.3333 2.83333C9.8731 2.83333 9.5 3.20643 9.5 3.66667V8.32149L3.42259 2.24408C3.09715 1.91864 2.56951 1.91864 2.24408 2.24408C1.91864 2.56951 1.91864 3.09715 2.24408 3.42259L8.32149 9.5H3.66667C3.20643 9.5 2.83333 9.8731 2.83333 10.3333C2.83333 10.7936 3.20643 11.1667 3.66667 11.1667H9.5Z" fill="#1C1B1F"/>
</svg>
