<svg width="24" height="24" viewBox="0 0 24 24" fill="none" xmlns="http://www.w3.org/2000/svg">
<path d="M13.6666 5.33335C13.6666 4.41669 12.9166 3.66669 12 3.66669C11.0833 3.66669 10.3333 4.41669 10.3333 5.33335C10.3333 6.25002 11.0833 7.00002 12 7.00002C12.9166 7.00002 13.6666 6.25002 13.6666 5.33335ZM13.6666 18C13.6666 17.0834 12.9166 16.3334 12 16.3334C11.0833 16.3334 10.3333 17.0834 10.3333 18C10.3333 18.9167 11.0833 19.6667 12 19.6667C12.9166 19.6667 13.6666 18.9167 13.6666 18ZM13.6666 11.6667C13.6666 10.75 12.9166 10 12 10C11.0833 10 10.3333 10.75 10.3333 11.6667C10.3333 12.5834 11.0833 13.3334 12 13.3334C12.9166 13.3334 13.6666 12.5834 13.6666 11.6667Z" fill="#1C1B1F"/>
</svg>
