<svg width="24" height="24" viewBox="0 0 24 24" fill="none" xmlns="http://www.w3.org/2000/svg">
<path d="M18.9051 19.3345C18.9051 19.8232 18.515 20.223 18.0381 20.223H4.60078C4.12397 20.223 3.73385 19.8232 3.73385 19.3345V4.67437C3.73385 4.18569 4.12397 3.78587 4.60078 3.78587H18.0381C18.515 3.78587 18.9051 4.18569 18.9051 4.67437V8.04176L20.6389 6.26477V4.53221H20.6216C20.5522 3.12839 19.4252 2 18.0381 2H4.60078C3.16168 2.00888 2 3.19947 2 4.67437V19.3345C2 20.8094 3.16168 22 4.60078 22H18.0381C19.4772 22 20.6389 20.8094 20.6389 19.3345V14.7143L18.9051 16.4913V19.3345Z" fill="#1C1B1F"/>
<path d="M12.1951 10.0142H6.06589V11.5158H12.1951V10.0142Z" fill="#1C1B1F"/>
<path d="M15.7061 6.83341H6.06589V8.33496H15.7061V6.83341Z" fill="#1C1B1F"/>
<path d="M9.26485 13.2039H6.06589V14.7055H9.26485V13.2039Z" fill="#1C1B1F"/>
<path d="M21.6272 9.10795C21.3932 8.86806 21.0724 8.73478 20.743 8.73478C20.4135 8.73478 20.0928 8.86806 19.8587 9.10795L13.2527 15.8783C13.2007 15.9316 13.166 15.9938 13.1487 16.0737L12.7499 17.7175C12.7152 17.8596 12.7499 18.0107 12.8539 18.1084C12.958 18.215 13.0967 18.2506 13.2354 18.215L14.8392 17.8063C14.9085 17.7885 14.9779 17.753 15.0299 17.6997L21.6359 10.9294C21.87 10.6895 22 10.3607 22 10.0231C22 9.68547 21.87 9.35673 21.6359 9.11684L21.6272 9.10795Z" fill="#1C1B1F"/>
</svg>
