<svg width="24" height="24" viewBox="0 0 24 24" fill="none" xmlns="http://www.w3.org/2000/svg">
<path fill-rule="evenodd" clip-rule="evenodd" d="M5.0147 9.75692C5.36357 7.07293 7.65849 4.99999 10.4375 4.99999C11.973 4.99999 13.341 5.64362 14.3256 6.65214C14.5784 6.59589 14.8453 6.56249 15.125 6.56249C17.038 6.56249 18.6298 7.9375 18.9659 9.75321C20.7849 10.095 22 11.7255 22 13.5937C22 15.7511 20.2511 17.5 18.0938 17.5H15.7361C15.3046 17.5 14.9548 17.1502 14.9548 16.7187C14.9548 16.2873 15.3046 15.9375 15.7361 15.9375H18.0938C19.3882 15.9375 20.4375 14.8881 20.4375 13.5937C20.4375 12.2456 19.4927 11.25 18.25 11.25C17.8186 11.25 17.4688 10.9002 17.4688 10.4687C17.4688 9.17425 16.4195 8.12499 15.125 8.12499C14.861 8.12499 14.5993 8.17878 14.335 8.27414C14.0218 8.38713 13.6714 8.28918 13.4621 8.03016C12.7395 7.13546 11.6577 6.56249 10.4375 6.56249C8.28019 6.56249 6.5313 8.31138 6.5313 10.4687C6.5313 10.9002 6.18152 11.25 5.75005 11.25C4.50737 11.25 3.56255 12.2456 3.56255 13.5937C3.56255 14.8881 4.61191 15.9375 5.9063 15.9375H8.26404C8.69552 15.9375 9.04529 16.2873 9.04529 16.7187C9.04529 17.1502 8.69552 17.5 8.26404 17.5H5.9063C3.74897 17.5 2.00005 15.7511 2.00005 13.5937C2.00005 11.7322 3.2065 10.1067 5.0147 9.75692Z" fill="#1C1B1F"/>
<path fill-rule="evenodd" clip-rule="evenodd" d="M5.0147 9.75692C5.36357 7.07293 7.65849 4.99999 10.4375 4.99999C11.973 4.99999 13.341 5.64362 14.3256 6.65214C14.5784 6.59589 14.8453 6.56249 15.125 6.56249C17.038 6.56249 18.6298 7.9375 18.9659 9.75321C20.7849 10.095 22 11.7255 22 13.5937C22 15.7511 20.2511 17.5 18.0938 17.5H15.7361C15.3046 17.5 14.9548 17.1502 14.9548 16.7187C14.9548 16.2873 15.3046 15.9375 15.7361 15.9375H18.0938C19.3882 15.9375 20.4375 14.8881 20.4375 13.5937C20.4375 12.2456 19.4927 11.25 18.25 11.25C17.8186 11.25 17.4688 10.9002 17.4688 10.4687C17.4688 9.17425 16.4195 8.12499 15.125 8.12499C14.861 8.12499 14.5993 8.17878 14.335 8.27414C14.0218 8.38713 13.6714 8.28918 13.4621 8.03016C12.7395 7.13546 11.6577 6.56249 10.4375 6.56249C8.28019 6.56249 6.5313 8.31138 6.5313 10.4687C6.5313 10.9002 6.18152 11.25 5.75005 11.25C4.50737 11.25 3.56255 12.2456 3.56255 13.5937C3.56255 14.8881 4.61191 15.9375 5.9063 15.9375H8.26404C8.69552 15.9375 9.04529 16.2873 9.04529 16.7187C9.04529 17.1502 8.69552 17.5 8.26404 17.5H5.9063C3.74897 17.5 2.00005 15.7511 2.00005 13.5937C2.00005 11.7322 3.2065 10.1067 5.0147 9.75692Z" fill="#1C1B1F"/>
<path fill-rule="evenodd" clip-rule="evenodd" d="M12 11.1137C12.4315 11.1137 12.7813 11.4634 12.7813 11.8949V19.285C12.7813 19.7165 12.4315 20 12 20C11.5686 20 11.2188 19.7165 11.2188 19.285V11.8949C11.2188 11.4634 11.5686 11.1137 12 11.1137Z" fill="#1C1B1F"/>
<path fill-rule="evenodd" clip-rule="evenodd" d="M10.8952 11.7076C11.5054 11.0975 12.4947 11.0975 13.1049 11.7076L14.8962 13.499C15.2013 13.8041 15.2013 14.2987 14.8962 14.6038C14.5911 14.9089 14.0965 14.9089 13.7914 14.6038L12 12.8125L10.2087 14.6038C9.90363 14.9089 9.40897 14.9089 9.10387 14.6038C8.79877 14.2987 8.79877 13.8041 9.10387 13.499L10.8952 11.7076Z" fill="#1C1B1F"/>
<path fill-rule="evenodd" clip-rule="evenodd" d="M4.83647 9.59036C5.25873 6.87664 7.60548 4.79999 10.4375 4.79999C11.9905 4.79999 13.3776 5.43488 14.391 6.43424C14.6243 6.38889 14.8693 6.36249 15.125 6.36249C17.0892 6.36249 18.731 7.74136 19.1357 9.584C20.9855 9.99827 22.2001 11.686 22.2001 13.5937C22.2001 15.8615 20.3616 17.7 18.0938 17.7H15.7361C15.1941 17.7 14.7548 17.2607 14.7548 16.7187C14.7548 16.1768 15.1941 15.7375 15.7361 15.7375H18.0938C19.2777 15.7375 20.2375 14.7777 20.2375 13.5937C20.2375 12.3438 19.3704 11.45 18.25 11.45C17.7081 11.45 17.2688 11.0107 17.2688 10.4687C17.2688 9.28471 16.309 8.32499 15.125 8.32499C14.8886 8.32499 14.6501 8.37308 14.4029 8.46227C14.0095 8.60419 13.5694 8.48117 13.3066 8.15583C12.6189 7.30452 11.5927 6.76249 10.4375 6.76249C8.39065 6.76249 6.7313 8.42184 6.7313 10.4687C6.7313 11.0107 6.29198 11.45 5.75005 11.45C4.62969 11.45 3.76255 12.3438 3.76255 13.5937C3.76255 14.7777 4.72237 15.7375 5.9063 15.7375H8.26404C8.80597 15.7375 9.24529 16.1768 9.24529 16.7187C9.24529 17.2607 8.80597 17.7 8.26404 17.7H5.9063C3.63851 17.7 1.80005 15.8615 1.80005 13.5937C1.80005 11.6956 3.00228 10.0153 4.83647 9.59036ZM10.4375 5.19999C7.76028 5.19999 5.54912 7.19707 5.21303 9.7827C5.20192 9.86817 5.13731 9.93691 5.05268 9.95328C3.34918 10.2828 2.20005 11.8167 2.20005 13.5937C2.20005 15.6406 3.85942 17.3 5.9063 17.3H8.26404C8.58506 17.3 8.84529 17.0398 8.84529 16.7187C8.84529 16.3977 8.58506 16.1375 8.26404 16.1375H5.9063C4.50146 16.1375 3.36255 14.9986 3.36255 13.5937C3.36255 12.1474 4.38504 11.05 5.75005 11.05C6.07106 11.05 6.3313 10.7898 6.3313 10.4687C6.3313 8.20092 8.16974 6.36249 10.4375 6.36249C11.7226 6.36249 12.86 6.96641 13.6177 7.90448C13.7734 8.0972 14.0341 8.17007 14.2671 8.08601C14.5485 7.98449 14.8333 7.92499 15.125 7.92499C16.5299 7.92499 17.6688 9.06379 17.6688 10.4687C17.6688 10.7898 17.929 11.05 18.25 11.05C19.6151 11.05 20.6376 12.1474 20.6376 13.5937C20.6376 14.9986 19.4986 16.1375 18.0938 16.1375H15.7361C15.415 16.1375 15.1548 16.3977 15.1548 16.7187C15.1548 17.0398 15.415 17.3 15.7361 17.3H18.0938C20.1407 17.3 21.8 15.6406 21.8 13.5937C21.8 11.8104 20.6427 10.2718 18.929 9.94977C18.8478 9.93451 18.7843 9.87087 18.7693 9.78961C18.4504 8.06699 16.9398 6.76249 15.125 6.76249C14.8613 6.76249 14.609 6.79397 14.3691 6.84737C14.3015 6.86241 14.2309 6.84141 14.1825 6.79186C13.2329 5.81913 11.9154 5.19999 10.4375 5.19999ZM11.3229 11.1848C11.499 11.0168 11.7375 10.9137 12 10.9137C12.2626 10.9137 12.5011 11.0168 12.6772 11.1848C12.8842 11.2708 13.078 11.3979 13.2463 11.5662L15.0376 13.3575C15.4208 13.7407 15.4208 14.362 15.0376 14.7452C14.6544 15.1284 14.0332 15.1284 13.65 14.7452L12.9813 14.0766V19.285C12.9813 19.8496 12.5178 20.2 12 20.2C11.4823 20.2 11.0188 19.8496 11.0188 19.285V14.0766L10.3501 14.7452C9.96694 15.1284 9.34565 15.1284 8.96245 14.7452C8.57925 14.362 8.57925 13.7407 8.96245 13.3575L10.7538 11.5662C10.9221 11.3979 11.1159 11.2708 11.3229 11.1848ZM11.0192 11.8665L9.24529 13.6404C9.0183 13.8674 9.0183 14.2354 9.24529 14.4624C9.47228 14.6894 9.84031 14.6894 10.0673 14.4624L11.0188 13.5109V11.8949C11.0188 11.8854 11.0189 11.8759 11.0192 11.8665ZM11.4188 13.6766V19.285C11.4188 19.5833 11.6549 19.8 12 19.8C12.3452 19.8 12.5813 19.5833 12.5813 19.285V13.6766L12 13.0953L11.4188 13.6766ZM12.5813 13.1109L12.1415 12.6711C12.0634 12.593 11.9367 12.593 11.8586 12.6711L11.4188 13.1109V11.8949C11.4188 11.7548 11.4684 11.6262 11.551 11.5258C11.8413 11.4247 12.1588 11.4247 12.4491 11.5258C12.5317 11.6262 12.5813 11.7548 12.5813 11.8949V13.1109ZM12.9813 13.5109L13.9328 14.4624C14.1598 14.6894 14.5278 14.6894 14.7548 14.4624C14.9818 14.2354 14.9818 13.8674 14.7548 13.6404L12.9809 11.8665C12.9812 11.8759 12.9813 11.8854 12.9813 11.8949V13.5109Z" fill="#1C1B1F"/>
</svg>
