<svg width="24" height="24" viewBox="0 0 24 24" fill="none" xmlns="http://www.w3.org/2000/svg">
<path d="M10.2005 18.9715L6.58319 19.8902C6.10102 20.0118 5.60933 19.7283 5.4835 19.2561L2.07767 6.36905C1.95364 5.89638 2.24287 5.41436 2.72456 5.29101L11.5204 3.05775C11.5951 3.03787 11.6721 3.02808 11.7495 3.02859C12.16 3.02924 12.5181 3.30205 12.6201 3.6919L13.0397 5.27726H14.122L13.6359 3.43307C13.3664 2.41124 12.3029 1.7971 11.2606 2.06132L11.2582 2.06192L2.46233 4.29518C1.42023 4.56135 0.794037 5.60365 1.0619 6.62612L4.46768 19.5131C4.69108 20.3556 5.46617 20.9443 6.35411 20.946C6.51992 20.9467 6.68511 20.9259 6.84538 20.8843L10.3211 20.0016C10.2879 19.6571 10.2617 19.3109 10.2005 18.9715Z" fill="#1C1B1F"/>
<path d="M10.3805 12.7637C10.3788 11.7353 10.5117 10.6899 10.3963 9.66665C10.3368 9.6238 10.2739 9.58266 10.2092 9.54496C9.12195 8.92056 7.72422 9.27842 7.08728 10.3443C6.45034 11.4101 6.81539 12.7803 7.90263 13.4047C8.2502 13.6043 8.64546 13.7102 9.04831 13.7115C9.53156 13.7091 10.002 13.5594 10.3945 13.283C10.3858 13.1099 10.3805 12.9368 10.3805 12.7637ZM10.1148 12.0867C9.76955 12.6616 9.01425 12.8534 8.42766 12.5152C7.84087 12.1768 7.64499 11.4363 7.9901 10.861C8.15567 10.585 8.42624 10.3847 8.74236 10.3042C8.84385 10.2776 8.94852 10.2644 9.05356 10.2648C9.73431 10.2651 10.2859 10.8064 10.2855 11.4737C10.2854 11.6893 10.2265 11.9009 10.1148 12.0867Z" fill="#1C1B1F"/>
<path d="M8.16801 8.64255C7.92894 8.64176 7.72022 8.48358 7.65922 8.25692L7.44066 7.42912C7.36777 7.15413 7.53604 6.87329 7.81655 6.80183C8.09706 6.73038 8.38354 6.89534 8.45643 7.17033L8.67499 7.99813C8.74869 8.27178 8.58217 8.5522 8.30298 8.62444L8.2991 8.62542C8.25643 8.63702 8.21229 8.64278 8.16801 8.64255Z" fill="#1C1B1F"/>
<path d="M5.94471 10.1953C5.85108 10.1957 5.75911 10.1708 5.67898 10.1233L4.92719 9.68968C4.68177 9.53879 4.60761 9.22145 4.76153 8.98087C4.90924 8.74998 5.21509 8.67217 5.45866 8.80356L6.21045 9.23719C6.46055 9.38051 6.54476 9.69539 6.39861 9.94057C6.30432 10.0986 6.13145 10.1956 5.94471 10.1953Z" fill="#1C1B1F"/>
<path d="M4.9593 13.115C4.66964 13.1133 4.43621 12.8818 4.43796 12.5978C4.43938 12.3656 4.59927 12.1632 4.8282 12.1038L5.67263 11.8895C5.95314 11.8181 6.23962 11.983 6.3125 12.258C6.38539 12.533 6.21712 12.8138 5.93661 12.8853L5.09219 13.0996C5.04862 13.1098 5.00405 13.115 4.9593 13.115Z" fill="#1C1B1F"/>
<path d="M6.8525 15.8236C6.75887 15.824 6.6669 15.7991 6.58677 15.7516C6.33737 15.609 6.25312 15.2952 6.39861 15.0507L6.3997 15.0489L6.84204 14.3119C6.98165 14.0631 7.30057 13.9723 7.55442 14.1092C7.80822 14.2461 7.90076 14.5587 7.76115 14.8076C7.75632 14.8162 7.75125 14.8246 7.74594 14.8329L7.3036 15.5699C7.20983 15.7269 7.03815 15.8235 6.8525 15.8236Z" fill="#1C1B1F"/>
<path d="M10.1541 16.1615C9.91549 16.1606 9.70739 16.0023 9.6471 15.7759L9.42854 14.9481C9.35565 14.6731 9.52392 14.3923 9.80443 14.3208C10.0849 14.2494 10.3714 14.4143 10.4443 14.6893L10.6629 15.5171C10.7349 15.792 10.567 16.0723 10.287 16.1444C10.2435 16.155 10.1989 16.1608 10.1541 16.1615Z" fill="#1C1B1F"/>
<path d="M21.0489 22H11.9628C10.8852 22 10.0117 21.1436 10.0117 20.0873V6.77523C10.0126 5.71923 10.8856 4.86343 11.9628 4.86251H21.0489C22.1256 4.86441 22.9981 5.71965 23 6.77523V20.0873C22.9991 21.1433 22.1261 21.9991 21.0489 22ZM11.9628 5.89083C11.4649 5.89176 11.0616 6.28718 11.0606 6.77523V20.0873C11.0606 20.5757 11.4645 20.9717 11.9628 20.9717H21.0489C21.5467 20.9707 21.95 20.5753 21.951 20.0873V6.77523C21.9501 6.28718 21.5467 5.89181 21.0489 5.89083H11.9628Z" fill="#1C1B1F"/>
<path d="M16.5049 17.9157C16.3175 17.9155 16.1444 17.8176 16.0504 17.6586L15.0329 15.931H12.9978C12.7082 15.9303 12.474 15.6994 12.4747 15.4155C12.475 15.3257 12.4992 15.2375 12.545 15.1597L13.5625 13.4321L12.545 11.7045C12.4001 11.4586 12.4861 11.1441 12.737 11.0021C12.8163 10.9572 12.9062 10.9334 12.9978 10.9332H15.0329L16.0504 9.20558C16.1949 8.95946 16.5156 8.87478 16.7666 9.01648C16.8468 9.06174 16.9133 9.12697 16.9595 9.20558L17.977 10.9332H20.0121C20.3017 10.933 20.5367 11.1631 20.5369 11.4471C20.537 11.5374 20.5127 11.6262 20.4666 11.7045L19.4491 13.4321L20.4666 15.1597C20.6115 15.4057 20.5255 15.7201 20.2746 15.8621C20.1948 15.9073 20.1042 15.931 20.012 15.931H17.977L16.9595 17.6586C16.8655 17.8176 16.6923 17.9155 16.5049 17.9157ZM13.9069 14.9027H15.3371C15.5241 14.9024 15.6969 15.0006 15.7899 15.1597L16.5049 16.3732L17.22 15.1597C17.314 15.0008 17.4872 14.9029 17.6746 14.9027H19.103L18.3896 13.6892C18.2952 13.5303 18.2952 13.3339 18.3896 13.175L19.103 11.9615H17.6746C17.4874 11.9606 17.3146 11.8629 17.22 11.7044L16.5049 10.491L15.7899 11.7044C15.6964 11.8631 15.5239 11.9611 15.3371 11.9615H13.9069L14.622 13.175C14.7147 13.3344 14.7147 13.5298 14.622 13.6892L13.9069 14.9027Z" fill="#1C1B1F"/>
<path d="M10.2005 18.9715L6.58319 19.8902C6.10102 20.0118 5.60933 19.7283 5.4835 19.2561L2.07767 6.36905C1.95364 5.89638 2.24287 5.41436 2.72456 5.29101L11.5204 3.05775C11.5951 3.03787 11.6721 3.02808 11.7495 3.02859C12.16 3.02924 12.5181 3.30205 12.6201 3.6919L13.0397 5.27726H14.122L13.6359 3.43307C13.3664 2.41124 12.3029 1.7971 11.2606 2.06132L11.2582 2.06192L2.46233 4.29518C1.42023 4.56135 0.794037 5.60365 1.0619 6.62612L4.46768 19.5131C4.69108 20.3556 5.46617 20.9443 6.35411 20.946C6.51992 20.9467 6.68511 20.9259 6.84538 20.8843L10.3211 20.0016C10.2879 19.6571 10.2617 19.3109 10.2005 18.9715Z" stroke="#1C1B1F" stroke-width="0.4"/>
<path d="M10.3805 12.7637C10.3788 11.7353 10.5117 10.6899 10.3963 9.66665C10.3368 9.6238 10.2739 9.58266 10.2092 9.54496C9.12195 8.92056 7.72422 9.27842 7.08728 10.3443C6.45034 11.4101 6.81539 12.7803 7.90263 13.4047C8.2502 13.6043 8.64546 13.7102 9.04831 13.7115C9.53156 13.7091 10.002 13.5594 10.3945 13.283C10.3858 13.1099 10.3805 12.9368 10.3805 12.7637ZM10.1148 12.0867C9.76955 12.6616 9.01425 12.8534 8.42766 12.5152C7.84087 12.1768 7.64499 11.4363 7.9901 10.861C8.15567 10.585 8.42624 10.3847 8.74236 10.3042C8.84385 10.2776 8.94852 10.2644 9.05356 10.2648C9.73431 10.2651 10.2859 10.8064 10.2855 11.4737C10.2854 11.6893 10.2265 11.9009 10.1148 12.0867Z" stroke="#1C1B1F" stroke-width="0.4"/>
<path d="M8.16801 8.64255C7.92894 8.64176 7.72022 8.48358 7.65922 8.25692L7.44066 7.42912C7.36777 7.15413 7.53604 6.87329 7.81655 6.80183C8.09706 6.73038 8.38354 6.89534 8.45643 7.17033L8.67499 7.99813C8.74869 8.27178 8.58217 8.5522 8.30298 8.62444L8.2991 8.62542C8.25643 8.63702 8.21229 8.64278 8.16801 8.64255Z" stroke="#1C1B1F" stroke-width="0.4"/>
<path d="M5.94471 10.1953C5.85108 10.1957 5.75911 10.1708 5.67898 10.1233L4.92719 9.68968C4.68177 9.53879 4.60761 9.22145 4.76153 8.98087C4.90924 8.74998 5.21509 8.67217 5.45866 8.80356L6.21045 9.23719C6.46055 9.38051 6.54476 9.69539 6.39861 9.94057C6.30432 10.0986 6.13145 10.1956 5.94471 10.1953Z" stroke="#1C1B1F" stroke-width="0.4"/>
<path d="M4.9593 13.115C4.66964 13.1133 4.43621 12.8818 4.43796 12.5978C4.43938 12.3656 4.59927 12.1632 4.8282 12.1038L5.67263 11.8895C5.95314 11.8181 6.23962 11.983 6.3125 12.258C6.38539 12.533 6.21712 12.8138 5.93661 12.8853L5.09219 13.0996C5.04862 13.1098 5.00405 13.115 4.9593 13.115Z" stroke="#1C1B1F" stroke-width="0.4"/>
<path d="M6.8525 15.8236C6.75887 15.824 6.6669 15.7991 6.58677 15.7516C6.33737 15.609 6.25312 15.2952 6.39861 15.0507L6.3997 15.0489L6.84204 14.3119C6.98165 14.0631 7.30057 13.9723 7.55442 14.1092C7.80822 14.2461 7.90076 14.5587 7.76115 14.8076C7.75632 14.8162 7.75125 14.8246 7.74594 14.8329L7.3036 15.5699C7.20983 15.7269 7.03815 15.8235 6.8525 15.8236Z" stroke="#1C1B1F" stroke-width="0.4"/>
<path d="M10.1541 16.1615C9.91549 16.1606 9.70739 16.0023 9.6471 15.7759L9.42854 14.9481C9.35565 14.6731 9.52392 14.3923 9.80443 14.3208C10.0849 14.2494 10.3714 14.4143 10.4443 14.6893L10.6629 15.5171C10.7349 15.792 10.567 16.0723 10.287 16.1444C10.2435 16.155 10.1989 16.1608 10.1541 16.1615Z" stroke="#1C1B1F" stroke-width="0.4"/>
<path d="M21.0489 22H11.9628C10.8852 22 10.0117 21.1436 10.0117 20.0873V6.77523C10.0126 5.71923 10.8856 4.86343 11.9628 4.86251H21.0489C22.1256 4.86441 22.9981 5.71965 23 6.77523V20.0873C22.9991 21.1433 22.1261 21.9991 21.0489 22ZM11.9628 5.89083C11.4649 5.89176 11.0616 6.28718 11.0606 6.77523V20.0873C11.0606 20.5757 11.4645 20.9717 11.9628 20.9717H21.0489C21.5467 20.9707 21.95 20.5753 21.951 20.0873V6.77523C21.9501 6.28718 21.5467 5.89181 21.0489 5.89083H11.9628Z" stroke="#1C1B1F" stroke-width="0.4"/>
<path d="M16.5049 17.9157C16.3175 17.9155 16.1444 17.8176 16.0504 17.6586L15.0329 15.931H12.9978C12.7082 15.9303 12.474 15.6994 12.4747 15.4155C12.475 15.3257 12.4992 15.2375 12.545 15.1597L13.5625 13.4321L12.545 11.7045C12.4001 11.4586 12.4861 11.1441 12.737 11.0021C12.8163 10.9572 12.9062 10.9334 12.9978 10.9332H15.0329L16.0504 9.20558C16.1949 8.95946 16.5156 8.87478 16.7666 9.01648C16.8468 9.06174 16.9133 9.12697 16.9595 9.20558L17.977 10.9332H20.0121C20.3017 10.933 20.5367 11.1631 20.5369 11.4471C20.537 11.5374 20.5127 11.6262 20.4666 11.7045L19.4491 13.4321L20.4666 15.1597C20.6115 15.4057 20.5255 15.7201 20.2746 15.8621C20.1948 15.9073 20.1042 15.931 20.012 15.931H17.977L16.9595 17.6586C16.8655 17.8176 16.6923 17.9155 16.5049 17.9157ZM13.9069 14.9027H15.3371C15.5241 14.9024 15.6969 15.0006 15.7899 15.1597L16.5049 16.3732L17.22 15.1597C17.314 15.0008 17.4872 14.9029 17.6746 14.9027H19.103L18.3896 13.6892C18.2952 13.5303 18.2952 13.3339 18.3896 13.175L19.103 11.9615H17.6746C17.4874 11.9606 17.3146 11.8629 17.22 11.7044L16.5049 10.491L15.7899 11.7044C15.6964 11.8631 15.5239 11.9611 15.3371 11.9615H13.9069L14.622 13.175C14.7147 13.3344 14.7147 13.5298 14.622 13.6892L13.9069 14.9027Z" stroke="#1C1B1F" stroke-width="0.4"/>
</svg>
