<svg width="24" height="24" viewBox="0 0 24 24" fill="none" xmlns="http://www.w3.org/2000/svg">
<path fill-rule="evenodd" clip-rule="evenodd" d="M13.25 3C13.25 2.44772 13.6977 2 14.25 2H21C21.5523 2 22 2.44772 22 3C22 3.55228 21.5523 4 21 4H14.25C13.6977 4 13.25 3.55228 13.25 3Z" fill="#1C1B1F"/>
<path fill-rule="evenodd" clip-rule="evenodd" d="M21 2C21.5523 2 22 2.44772 22 3L22 9.75C22 10.3023 21.5523 10.75 21 10.75C20.4477 10.75 20 10.3023 20 9.75V3C20 2.44772 20.4477 2 21 2Z" fill="#1C1B1F"/>
<path fill-rule="evenodd" clip-rule="evenodd" d="M21.7071 2.29289C22.0976 2.68342 22.0976 3.31658 21.7071 3.70711L12.7071 12.7071C12.3166 13.0976 11.6834 13.0976 11.2929 12.7071C10.9024 12.3166 10.9024 11.6834 11.2929 11.2929L20.2929 2.29289C20.6834 1.90237 21.3166 1.90237 21.7071 2.29289Z" fill="#1C1B1F"/>
<path fill-rule="evenodd" clip-rule="evenodd" d="M2 5.25C2 4.69772 2.44772 4.25 3 4.25H9.75C10.3023 4.25 10.75 4.69772 10.75 5.25C10.75 5.80229 10.3023 6.25 9.75 6.25H4V20H17.75V14.25C17.75 13.6977 18.1977 13.25 18.75 13.25C19.3023 13.25 19.75 13.6977 19.75 14.25V21C19.75 21.5523 19.3023 22 18.75 22H3C2.44772 22 2 21.5523 2 21V5.25Z" fill="#1C1B1F"/>
</svg>
