<svg width="48" height="67" viewBox="0 0 48 67" fill="none" xmlns="http://www.w3.org/2000/svg">
<path d="M20.401 37.9431L13.1664 39.7804C12.202 40.0236 11.2187 39.4565 10.967 38.5121L4.15535 12.7381C3.90728 11.7928 4.48573 10.8287 5.44912 10.582L23.0409 6.11549C23.1902 6.07575 23.3443 6.05616 23.4989 6.05718C24.32 6.05848 25.0362 6.6041 25.2403 7.3838L26.0795 10.5545H28.2439L27.2718 6.86613C26.7328 4.82248 24.6058 3.59419 22.5212 4.12263L22.5164 4.12384L4.92466 8.59036C2.84045 9.1227 1.58807 11.2073 2.12381 13.2522L8.93536 39.0263C9.38216 40.7113 10.9323 41.8887 12.7082 41.8919C13.0398 41.8933 13.3702 41.8518 13.6908 41.7685L20.6421 40.0032C20.5757 39.3142 20.5233 38.6218 20.401 37.9431Z" fill="white"/>
<path d="M20.7611 25.5274C20.7576 23.4706 21.0233 21.3797 20.7925 19.3333C20.6736 19.2476 20.5478 19.1653 20.4184 19.0899C18.2439 17.8411 15.4484 18.5568 14.1746 20.6885C12.9007 22.8202 13.6308 25.5606 15.8053 26.8094C16.5004 27.2086 17.2909 27.4203 18.0966 27.4229C19.0631 27.4183 20.0041 27.1187 20.789 26.566C20.7716 26.2198 20.7611 25.8736 20.7611 25.5274ZM20.2296 24.1734C19.5391 25.3233 18.0285 25.7069 16.8553 25.0303C15.6817 24.3537 15.29 22.8726 15.9802 21.7221C16.3113 21.1701 16.8525 20.7695 17.4847 20.6084C17.6877 20.5553 17.897 20.5287 18.1071 20.5296C19.4686 20.5302 20.5717 21.6127 20.5711 22.9473C20.5709 23.3785 20.4529 23.8019 20.2296 24.1734Z" fill="white"/>
<path d="M16.336 17.2851C15.8579 17.2835 15.4404 16.9672 15.3184 16.5138L14.8813 14.8582C14.7355 14.3083 15.0721 13.7466 15.6331 13.6037C16.1941 13.4608 16.7671 13.7907 16.9129 14.3407L17.35 15.9963C17.4974 16.5436 17.1643 17.1044 16.606 17.2489L16.5982 17.2508C16.5129 17.274 16.4246 17.2856 16.336 17.2851Z" fill="white"/>
<path d="M11.8894 20.3905C11.7022 20.3914 11.5182 20.3416 11.358 20.2466L9.85438 19.3794C9.36354 19.0776 9.21521 18.4429 9.52305 17.9617C9.81848 17.5 10.4302 17.3443 10.9173 17.6071L12.4209 18.4744C12.9211 18.761 13.0895 19.3908 12.7972 19.8811C12.6086 20.1972 12.2629 20.3913 11.8894 20.3905Z" fill="white"/>
<path d="M9.91859 26.23C9.33929 26.2267 8.87241 25.7635 8.87592 25.1955C8.87876 24.7312 9.19853 24.3264 9.65641 24.2075L11.3453 23.779C11.9063 23.6361 12.4792 23.966 12.625 24.516C12.7708 25.066 12.4342 25.6277 11.8732 25.7706L10.1844 26.1991C10.0972 26.2195 10.0081 26.2299 9.91859 26.23Z" fill="white"/>
<path d="M13.705 31.6471C13.5177 31.6479 13.3338 31.5982 13.1735 31.5032C12.6747 31.218 12.5062 30.5904 12.7972 30.1014L12.7994 30.0977L13.6841 28.6237C13.9633 28.1261 14.6011 27.9446 15.1088 28.2184C15.6164 28.4922 15.8015 29.1174 15.5223 29.6152C15.5126 29.6323 15.5025 29.6492 15.4919 29.6659L14.6072 31.1398C14.4197 31.4539 14.0763 31.647 13.705 31.6471Z" fill="white"/>
<path d="M20.3083 32.3231C19.831 32.3211 19.4148 32.0046 19.2942 31.5518L18.8571 29.8962C18.7113 29.3462 19.0478 28.7846 19.6089 28.6417C20.1699 28.4988 20.7428 28.8287 20.8886 29.3786L21.3257 31.0343C21.4698 31.584 21.1339 32.1445 20.574 32.2888C20.487 32.31 20.3979 32.3215 20.3083 32.3231Z" fill="white"/>
<path d="M42.0978 44H23.9256C21.7704 44 20.0233 42.2873 20.0233 40.1745V13.5505C20.0252 11.4385 21.7713 9.72687 23.9256 9.72501H42.0978C44.2513 9.72882 45.9962 11.4393 46 13.5505V40.1745C45.9981 42.2865 44.2521 43.9981 42.0978 44ZM23.9256 11.7817C22.9299 11.7835 22.1232 12.5744 22.1212 13.5505V40.1745C22.1212 41.1514 22.929 41.9434 23.9256 41.9434H42.0978C43.0934 41.9415 43.9001 41.1506 43.9021 40.1745V13.5505C43.9002 12.5744 43.0934 11.7836 42.0978 11.7817H23.9256Z" fill="white"/>
<path d="M33.0099 35.8314C32.6351 35.831 32.2888 35.6351 32.1008 35.3173L30.0657 31.8621H25.9956C25.4163 31.8606 24.9479 31.3989 24.9495 30.8309C24.9499 30.6513 24.9984 30.475 25.09 30.3195L27.1251 26.8642L25.0899 23.409C24.8003 22.9171 24.9722 22.2882 25.4739 22.0042C25.6326 21.9144 25.8125 21.8668 25.9956 21.8664H30.0657L32.1008 18.4112C32.3898 17.9189 33.0311 17.7496 33.5332 18.033C33.6936 18.1235 33.8267 18.2539 33.919 18.4112L35.9541 21.8664H40.0241C40.6035 21.866 41.0735 22.3261 41.0738 22.8941C41.0739 23.0748 41.0254 23.2524 40.9333 23.409L38.8982 26.8642L40.9333 30.3195C41.2229 30.8113 41.051 31.4402 40.5493 31.7242C40.3896 31.8145 40.2085 31.8621 40.0241 31.862H35.954L33.9189 35.3172C33.731 35.6351 33.3847 35.831 33.0099 35.8314ZM27.8139 29.8053H30.6741C31.0483 29.8049 31.3939 30.0012 31.5797 30.3195L33.0099 32.7464L34.4401 30.3195C34.6281 30.0016 34.9744 29.8058 35.3492 29.8053H38.2059L36.7793 27.3784C36.5904 27.0606 36.5904 26.6678 36.7793 26.35L38.2059 23.923H35.3492C34.9748 23.9212 34.6291 23.7257 34.4401 23.4089L33.0099 20.9819L31.5797 23.4089C31.3928 23.7262 31.0479 23.9221 30.6741 23.923H27.8139L29.244 26.35C29.4293 26.6688 29.4293 27.0596 29.244 27.3784L27.8139 29.8053Z" fill="white"/>
<path d="M8.85441 66.14C8.49974 66.14 8.18707 66.084 7.91641 65.972C7.64574 65.86 7.43574 65.6827 7.28641 65.44C7.13707 65.188 7.06241 64.866 7.06241 64.474V58.328H8.84041V64.25C8.84041 64.446 8.88241 64.5907 8.96641 64.684C9.05041 64.768 9.18574 64.81 9.37241 64.81C9.44707 64.81 9.52641 64.8007 9.61041 64.782C9.70374 64.7633 9.78774 64.74 9.86241 64.712L10.0584 65.888C9.88107 65.9813 9.68974 66.0467 9.48441 66.084C9.27907 66.1213 9.06907 66.14 8.85441 66.14ZM14.6001 66.168C13.4241 66.168 12.5748 65.8973 12.0521 65.356C11.5388 64.8147 11.2821 64.0307 11.2821 63.004V58.328H13.0601V63.088C13.0601 63.6293 13.1861 64.04 13.4381 64.32C13.6901 64.5907 14.0774 64.726 14.6001 64.726C15.1321 64.726 15.5241 64.5907 15.7761 64.32C16.0281 64.04 16.1541 63.6293 16.1541 63.088V55.57H17.9321V63.004C17.9321 64.0307 17.6708 64.8147 17.1481 65.356C16.6254 65.8973 15.7761 66.168 14.6001 66.168ZM10.4001 57.208V56.452L11.4921 55.92H15.4681V57.208H10.4001ZM22.7204 66.14C21.9738 66.14 21.3811 65.972 20.9424 65.636C20.5038 65.2907 20.1911 64.824 20.0044 64.236C19.8178 63.648 19.7244 62.9853 19.7244 62.248C19.7244 61.4453 19.8084 60.778 19.9764 60.246C20.1538 59.714 20.4011 59.2987 20.7184 59C21.0451 58.692 21.4324 58.4773 21.8804 58.356C22.3284 58.2253 22.8231 58.16 23.3644 58.16C24.1671 58.16 24.8111 58.2767 25.2964 58.51C25.7911 58.734 26.1504 59.056 26.3744 59.476C26.6078 59.896 26.7244 60.3907 26.7244 60.96V66H24.9464V61.1C24.9464 60.6147 24.8251 60.246 24.5824 59.994C24.3491 59.7327 23.9478 59.602 23.3784 59.602C23.0144 59.602 22.6878 59.6767 22.3984 59.826C22.1184 59.966 21.8991 60.2227 21.7404 60.596C21.5911 60.9693 21.5164 61.5153 21.5164 62.234C21.5164 62.71 21.5631 63.1347 21.6564 63.508C21.7498 63.8813 21.9038 64.1753 22.1184 64.39C22.3424 64.5953 22.6458 64.698 23.0284 64.698C23.1498 64.698 23.2618 64.6933 23.3644 64.684C23.4764 64.6653 23.5744 64.642 23.6584 64.614L23.8264 65.958C23.6771 66.0233 23.4998 66.07 23.2944 66.098C23.0984 66.126 22.9071 66.14 22.7204 66.14ZM29.2578 59.728V57.516C29.2578 57.1613 29.2904 56.8767 29.3558 56.662C29.4211 56.438 29.5098 56.256 29.6218 56.116C29.7338 55.976 29.8504 55.8593 29.9718 55.766L29.9578 55.71H27.6898L28.0538 54.394H32.3238V55.71C31.9784 55.71 31.6751 55.822 31.4138 56.046C31.1618 56.27 31.0358 56.6807 31.0358 57.278V59.728H29.2578ZM31.0498 66.14C30.6858 66.14 30.3684 66.084 30.0978 65.972C29.8364 65.86 29.6311 65.6827 29.4818 65.44C29.3324 65.188 29.2578 64.866 29.2578 64.474V58.328H31.0358V64.25C31.0358 64.446 31.0778 64.5907 31.1618 64.684C31.2458 64.768 31.3811 64.81 31.5678 64.81C31.6424 64.81 31.7218 64.8007 31.8058 64.782C31.8991 64.7633 31.9831 64.74 32.0578 64.712L32.2398 65.888C32.0624 65.9813 31.8711 66.0467 31.6658 66.084C31.4698 66.1213 31.2644 66.14 31.0498 66.14ZM34.0098 66L32.6658 58.328H34.4158L34.8638 61.268C34.8918 61.5107 34.9291 61.8327 34.9758 62.234C35.0224 62.6353 35.0691 63.1067 35.1158 63.648H35.1578C35.2418 63.284 35.3164 62.9527 35.3818 62.654C35.4564 62.3553 35.5264 62.0893 35.5918 61.856C35.6571 61.6133 35.7131 61.4033 35.7598 61.226L36.5858 58.328H37.7618L38.5878 61.226C38.6438 61.4033 38.7044 61.6133 38.7698 61.856C38.8351 62.0893 38.9004 62.3553 38.9658 62.654C39.0404 62.9527 39.1198 63.284 39.2038 63.648H39.2458C39.2924 63.1067 39.3344 62.6353 39.3718 62.234C39.4184 61.8327 39.4604 61.5107 39.4978 61.268L39.9598 58.328H41.6958L40.3518 66H38.6158L37.5798 62.486C37.4958 62.1687 37.4258 61.87 37.3698 61.59C37.3138 61.3007 37.2624 60.9787 37.2158 60.624H37.1598C37.1224 60.8667 37.0851 61.086 37.0478 61.282C37.0104 61.478 36.9684 61.674 36.9218 61.87C36.8751 62.0567 36.8191 62.262 36.7538 62.486L35.7178 66H34.0098ZM39.409 57.208V54.114H41.075V57.208H39.409Z" fill="white"/>
</svg>
